<?xml version="1.0" encoding="UTF-8" standalone="no"?>
<!DOCTYPE svg PUBLIC "-//W3C//DTD SVG 1.1//EN"
 "http://www.w3.org/Graphics/SVG/1.1/DTD/svg11.dtd">
<!-- Generated by graphviz version 2.43.0 (0)
 -->
<!-- Title: fx_graph Pages: 1 -->
<svg width="544pt" height="474pt"
 viewBox="0.00 0.00 544.00 474.00" xmlns="http://www.w3.org/2000/svg" xmlns:xlink="http://www.w3.org/1999/xlink">
<g id="graph0" class="graph" transform="scale(1 1) rotate(0) translate(4 470)">
<title>fx_graph</title>
<polygon fill="white" stroke="transparent" points="-4,4 -4,-470 540,-470 540,4 -4,4"/>
<!-- primals_1 -->
<g id="node1" class="node">
<title>primals_1</title>
<path fill="AliceBlue" stroke="black" d="M102.5,-373.5C102.5,-373.5 247.5,-373.5 247.5,-373.5 253.5,-373.5 259.5,-379.5 259.5,-385.5 259.5,-385.5 259.5,-453.5 259.5,-453.5 259.5,-459.5 253.5,-465.5 247.5,-465.5 247.5,-465.5 102.5,-465.5 102.5,-465.5 96.5,-465.5 90.5,-459.5 90.5,-453.5 90.5,-453.5 90.5,-385.5 90.5,-385.5 90.5,-379.5 96.5,-373.5 102.5,-373.5"/>
<text text-anchor="middle" x="175" y="-450.3" font-family="Times,serif" font-size="14.00" fill="#000000">name=%primals_1</text>
<polyline fill="none" stroke="black" points="90.5,-442.5 259.5,-442.5 "/>
<text text-anchor="middle" x="175" y="-427.3" font-family="Times,serif" font-size="14.00" fill="#000000">op_code=placeholder</text>
<polyline fill="none" stroke="black" points="90.5,-419.5 259.5,-419.5 "/>
<text text-anchor="middle" x="175" y="-404.3" font-family="Times,serif" font-size="14.00" fill="#000000">target=primals_1</text>
<polyline fill="none" stroke="black" points="90.5,-396.5 259.5,-396.5 "/>
<text text-anchor="middle" x="175" y="-381.3" font-family="Times,serif" font-size="14.00" fill="#000000">num_users=1</text>
</g>
<!-- buf0 -->
<g id="node3" class="node">
<title>buf0</title>
<path fill="Coral" stroke="black" d="M12,-129.5C12,-129.5 524,-129.5 524,-129.5 530,-129.5 536,-135.5 536,-141.5 536,-141.5 536,-324.5 536,-324.5 536,-330.5 530,-336.5 524,-336.5 524,-336.5 12,-336.5 12,-336.5 6,-336.5 0,-330.5 0,-324.5 0,-324.5 0,-141.5 0,-141.5 0,-135.5 6,-129.5 12,-129.5"/>
<text text-anchor="middle" x="268" y="-321.3" font-family="Times,serif" font-size="14.00" fill="#000000">name=%buf0</text>
<polyline fill="none" stroke="black" points="0,-313.5 536,-313.5 "/>
<text text-anchor="middle" x="268" y="-298.3" font-family="Times,serif" font-size="14.00" fill="#000000">op_code=call_function</text>
<polyline fill="none" stroke="black" points="0,-290.5 536,-290.5 "/>
<text text-anchor="middle" x="268" y="-275.3" font-family="Times,serif" font-size="14.00" fill="#000000">target=torch._inductor.debug.compute: fused_add_cos_mul_neg_pow_sin</text>
<polyline fill="none" stroke="black" points="0,-267.5 536,-267.5 "/>
<text text-anchor="middle" x="268" y="-252.3" font-family="Times,serif" font-size="14.00" fill="#000000">kwargs={device: cuda:0,}</text>
<polyline fill="none" stroke="black" points="0,-244.5 536,-244.5 "/>
<text text-anchor="middle" x="268" y="-229.3" font-family="Times,serif" font-size="14.00" fill="#000000">num_users=1</text>
<polyline fill="none" stroke="black" points="0,-221.5 536,-221.5 "/>
<text text-anchor="middle" x="268" y="-206.3" font-family="Times,serif" font-size="14.00" fill="#000000">dtype=None</text>
<polyline fill="none" stroke="black" points="0,-198.5 536,-198.5 "/>
<text text-anchor="middle" x="268" y="-183.3" font-family="Times,serif" font-size="14.00" fill="#000000">shape=(1000, 1)</text>
<polyline fill="none" stroke="black" points="0,-175.5 536,-175.5 "/>
<text text-anchor="middle" x="268" y="-160.3" font-family="Times,serif" font-size="14.00" fill="#000000">requires_grad=None</text>
<polyline fill="none" stroke="black" points="0,-152.5 536,-152.5 "/>
<text text-anchor="middle" x="268" y="-137.3" font-family="Times,serif" font-size="14.00" fill="#000000">stride=None</text>
</g>
<!-- primals_1&#45;&gt;buf0 -->
<g id="edge1" class="edge">
<title>primals_1&#45;&gt;buf0</title>
<path fill="none" stroke="black" d="M197.75,-373.37C202.11,-364.71 206.86,-355.29 211.76,-345.58"/>
<polygon fill="black" stroke="black" points="214.91,-347.09 216.29,-336.59 208.66,-343.94 214.91,-347.09"/>
</g>
<!-- tangents_1 -->
<g id="node2" class="node">
<title>tangents_1</title>
<path fill="AliceBlue" stroke="black" d="M289.5,-373.5C289.5,-373.5 434.5,-373.5 434.5,-373.5 440.5,-373.5 446.5,-379.5 446.5,-385.5 446.5,-385.5 446.5,-453.5 446.5,-453.5 446.5,-459.5 440.5,-465.5 434.5,-465.5 434.5,-465.5 289.5,-465.5 289.5,-465.5 283.5,-465.5 277.5,-459.5 277.5,-453.5 277.5,-453.5 277.5,-385.5 277.5,-385.5 277.5,-379.5 283.5,-373.5 289.5,-373.5"/>
<text text-anchor="middle" x="362" y="-450.3" font-family="Times,serif" font-size="14.00" fill="#000000">name=%tangents_1</text>
<polyline fill="none" stroke="black" points="277.5,-442.5 446.5,-442.5 "/>
<text text-anchor="middle" x="362" y="-427.3" font-family="Times,serif" font-size="14.00" fill="#000000">op_code=placeholder</text>
<polyline fill="none" stroke="black" points="277.5,-419.5 446.5,-419.5 "/>
<text text-anchor="middle" x="362" y="-404.3" font-family="Times,serif" font-size="14.00" fill="#000000">target=tangents_1</text>
<polyline fill="none" stroke="black" points="277.5,-396.5 446.5,-396.5 "/>
<text text-anchor="middle" x="362" y="-381.3" font-family="Times,serif" font-size="14.00" fill="#000000">num_users=1</text>
</g>
<!-- tangents_1&#45;&gt;buf0 -->
<g id="edge2" class="edge">
<title>tangents_1&#45;&gt;buf0</title>
<path fill="none" stroke="black" d="M339.01,-373.37C334.59,-364.71 329.8,-355.29 324.85,-345.58"/>
<polygon fill="black" stroke="black" points="327.92,-343.91 320.27,-336.59 321.69,-347.09 327.92,-343.91"/>
</g>
<!-- output -->
<g id="node4" class="node">
<title>output</title>
<path fill="PowderBlue" stroke="black" d="M213.5,-0.5C213.5,-0.5 322.5,-0.5 322.5,-0.5 328.5,-0.5 334.5,-6.5 334.5,-12.5 334.5,-12.5 334.5,-80.5 334.5,-80.5 334.5,-86.5 328.5,-92.5 322.5,-92.5 322.5,-92.5 213.5,-92.5 213.5,-92.5 207.5,-92.5 201.5,-86.5 201.5,-80.5 201.5,-80.5 201.5,-12.5 201.5,-12.5 201.5,-6.5 207.5,-0.5 213.5,-0.5"/>
<text text-anchor="middle" x="268" y="-77.3" font-family="Times,serif" font-size="14.00" fill="#000000">name=%output</text>
<polyline fill="none" stroke="black" points="201.5,-69.5 334.5,-69.5 "/>
<text text-anchor="middle" x="268" y="-54.3" font-family="Times,serif" font-size="14.00" fill="#000000">op_code=output</text>
<polyline fill="none" stroke="black" points="201.5,-46.5 334.5,-46.5 "/>
<text text-anchor="middle" x="268" y="-31.3" font-family="Times,serif" font-size="14.00" fill="#000000">target=output</text>
<polyline fill="none" stroke="black" points="201.5,-23.5 334.5,-23.5 "/>
<text text-anchor="middle" x="268" y="-8.3" font-family="Times,serif" font-size="14.00" fill="#000000">num_users=0</text>
</g>
<!-- buf0&#45;&gt;output -->
<g id="edge3" class="edge">
<title>buf0&#45;&gt;output</title>
<path fill="none" stroke="black" d="M268,-129.5C268,-120.3 268,-111.24 268,-102.69"/>
<polygon fill="black" stroke="black" points="271.5,-102.53 268,-92.53 264.5,-102.53 271.5,-102.53"/>
</g>
</g>
</svg>
