<?xml version="1.0" encoding="UTF-8" standalone="no"?>
<!DOCTYPE svg PUBLIC "-//W3C//DTD SVG 1.1//EN"
 "http://www.w3.org/Graphics/SVG/1.1/DTD/svg11.dtd">
<!-- Generated by graphviz version 2.43.0 (0)
 -->
<!-- Title: fn Pages: 1 -->
<svg width="1167pt" height="1473pt"
 viewBox="0.00 0.00 1166.50 1473.00" xmlns="http://www.w3.org/2000/svg" xmlns:xlink="http://www.w3.org/1999/xlink">
<g id="graph0" class="graph" transform="scale(1 1) rotate(0) translate(4 1469)">
<title>fn</title>
<polygon fill="white" stroke="transparent" points="-4,4 -4,-1469 1162.5,-1469 1162.5,4 -4,4"/>
<!-- primals_1 -->
<g id="node1" class="node">
<title>primals_1</title>
<path fill="AliceBlue" stroke="black" d="M182,-1048C182,-1048 327,-1048 327,-1048 333,-1048 339,-1054 339,-1060 339,-1060 339,-1220 339,-1220 339,-1226 333,-1232 327,-1232 327,-1232 182,-1232 182,-1232 176,-1232 170,-1226 170,-1220 170,-1220 170,-1060 170,-1060 170,-1054 176,-1048 182,-1048"/>
<text text-anchor="middle" x="254.5" y="-1216.8" font-family="Times,serif" font-size="14.00" fill="#000000">name=%primals_1</text>
<polyline fill="none" stroke="black" points="170,-1209 339,-1209 "/>
<text text-anchor="middle" x="254.5" y="-1193.8" font-family="Times,serif" font-size="14.00" fill="#000000">op_code=placeholder</text>
<polyline fill="none" stroke="black" points="170,-1186 339,-1186 "/>
<text text-anchor="middle" x="254.5" y="-1170.8" font-family="Times,serif" font-size="14.00" fill="#000000">target=primals_1</text>
<polyline fill="none" stroke="black" points="170,-1163 339,-1163 "/>
<text text-anchor="middle" x="254.5" y="-1147.8" font-family="Times,serif" font-size="14.00" fill="#000000">num_users=2</text>
<polyline fill="none" stroke="black" points="170,-1140 339,-1140 "/>
<text text-anchor="middle" x="254.5" y="-1124.8" font-family="Times,serif" font-size="14.00" fill="#000000">dtype=torch.float32</text>
<polyline fill="none" stroke="black" points="170,-1117 339,-1117 "/>
<text text-anchor="middle" x="254.5" y="-1101.8" font-family="Times,serif" font-size="14.00" fill="#000000">shape=(1000,)</text>
<polyline fill="none" stroke="black" points="170,-1094 339,-1094 "/>
<text text-anchor="middle" x="254.5" y="-1078.8" font-family="Times,serif" font-size="14.00" fill="#000000">requires_grad=True</text>
<polyline fill="none" stroke="black" points="170,-1071 339,-1071 "/>
<text text-anchor="middle" x="254.5" y="-1055.8" font-family="Times,serif" font-size="14.00" fill="#000000">stride=(1,)</text>
</g>
<!-- sin_1 -->
<g id="node8" class="node">
<title>sin_1</title>
<path fill="#ffe4e1" stroke="black" d="M68.5,-804C68.5,-804 300.5,-804 300.5,-804 306.5,-804 312.5,-810 312.5,-816 312.5,-816 312.5,-976 312.5,-976 312.5,-982 306.5,-988 300.5,-988 300.5,-988 68.5,-988 68.5,-988 62.5,-988 56.5,-982 56.5,-976 56.5,-976 56.5,-816 56.5,-816 56.5,-810 62.5,-804 68.5,-804"/>
<text text-anchor="middle" x="184.5" y="-972.8" font-family="Times,serif" font-size="14.00" fill="#000000">name=%sin_1</text>
<polyline fill="none" stroke="black" points="56.5,-965 312.5,-965 "/>
<text text-anchor="middle" x="184.5" y="-949.8" font-family="Times,serif" font-size="14.00" fill="#000000">op_code=call_function</text>
<polyline fill="none" stroke="black" points="56.5,-942 312.5,-942 "/>
<text text-anchor="middle" x="184.5" y="-926.8" font-family="Times,serif" font-size="14.00" fill="#000000">target=torch.ops.aten.sin.default</text>
<polyline fill="none" stroke="black" points="56.5,-919 312.5,-919 "/>
<text text-anchor="middle" x="184.5" y="-903.8" font-family="Times,serif" font-size="14.00" fill="#000000">num_users=1</text>
<polyline fill="none" stroke="black" points="56.5,-896 312.5,-896 "/>
<text text-anchor="middle" x="184.5" y="-880.8" font-family="Times,serif" font-size="14.00" fill="#000000">dtype=torch.float32</text>
<polyline fill="none" stroke="black" points="56.5,-873 312.5,-873 "/>
<text text-anchor="middle" x="184.5" y="-857.8" font-family="Times,serif" font-size="14.00" fill="#000000">shape=(1000,)</text>
<polyline fill="none" stroke="black" points="56.5,-850 312.5,-850 "/>
<text text-anchor="middle" x="184.5" y="-834.8" font-family="Times,serif" font-size="14.00" fill="#000000">requires_grad=False</text>
<polyline fill="none" stroke="black" points="56.5,-827 312.5,-827 "/>
<text text-anchor="middle" x="184.5" y="-811.8" font-family="Times,serif" font-size="14.00" fill="#000000">stride=(1,)</text>
</g>
<!-- primals_1&#45;&gt;sin_1 -->
<g id="edge1" class="edge">
<title>primals_1&#45;&gt;sin_1</title>
<path fill="none" stroke="black" d="M228.14,-1047.86C223.41,-1031.5 218.45,-1014.37 213.65,-997.77"/>
<polygon fill="black" stroke="black" points="216.98,-996.7 210.84,-988.06 210.26,-998.64 216.98,-996.7"/>
</g>
<!-- cos_1 -->
<g id="node14" class="node">
<title>cos_1</title>
<path fill="Coral" stroke="black" d="M291.5,-571.5C291.5,-571.5 525.5,-571.5 525.5,-571.5 531.5,-571.5 537.5,-577.5 537.5,-583.5 537.5,-583.5 537.5,-743.5 537.5,-743.5 537.5,-749.5 531.5,-755.5 525.5,-755.5 525.5,-755.5 291.5,-755.5 291.5,-755.5 285.5,-755.5 279.5,-749.5 279.5,-743.5 279.5,-743.5 279.5,-583.5 279.5,-583.5 279.5,-577.5 285.5,-571.5 291.5,-571.5"/>
<text text-anchor="middle" x="408.5" y="-740.3" font-family="Times,serif" font-size="14.00" fill="#000000">name=%cos_1</text>
<polyline fill="none" stroke="black" points="279.5,-732.5 537.5,-732.5 "/>
<text text-anchor="middle" x="408.5" y="-717.3" font-family="Times,serif" font-size="14.00" fill="#000000">op_code=call_function</text>
<polyline fill="none" stroke="black" points="279.5,-709.5 537.5,-709.5 "/>
<text text-anchor="middle" x="408.5" y="-694.3" font-family="Times,serif" font-size="14.00" fill="#000000">target=torch.ops.aten.cos.default</text>
<polyline fill="none" stroke="black" points="279.5,-686.5 537.5,-686.5 "/>
<text text-anchor="middle" x="408.5" y="-671.3" font-family="Times,serif" font-size="14.00" fill="#000000">num_users=1</text>
<polyline fill="none" stroke="black" points="279.5,-663.5 537.5,-663.5 "/>
<text text-anchor="middle" x="408.5" y="-648.3" font-family="Times,serif" font-size="14.00" fill="#000000">dtype=torch.float32</text>
<polyline fill="none" stroke="black" points="279.5,-640.5 537.5,-640.5 "/>
<text text-anchor="middle" x="408.5" y="-625.3" font-family="Times,serif" font-size="14.00" fill="#000000">shape=(1000,)</text>
<polyline fill="none" stroke="black" points="279.5,-617.5 537.5,-617.5 "/>
<text text-anchor="middle" x="408.5" y="-602.3" font-family="Times,serif" font-size="14.00" fill="#000000">requires_grad=False</text>
<polyline fill="none" stroke="black" points="279.5,-594.5 537.5,-594.5 "/>
<text text-anchor="middle" x="408.5" y="-579.3" font-family="Times,serif" font-size="14.00" fill="#000000">stride=(1,)</text>
</g>
<!-- primals_1&#45;&gt;cos_1 -->
<g id="edge2" class="edge">
<title>primals_1&#45;&gt;cos_1</title>
<path fill="none" stroke="black" d="M301.59,-1047.75C308.79,-1032.05 315.74,-1015.72 321.5,-1000 349.73,-923 372.56,-832.89 387.74,-765.46"/>
<polygon fill="black" stroke="black" points="391.16,-766.2 389.93,-755.68 384.33,-764.67 391.16,-766.2"/>
</g>
<!-- sin -->
<g id="node2" class="node">
<title>sin</title>
<path fill="AliceBlue" stroke="black" d="M930,-1280.5C930,-1280.5 1075,-1280.5 1075,-1280.5 1081,-1280.5 1087,-1286.5 1087,-1292.5 1087,-1292.5 1087,-1452.5 1087,-1452.5 1087,-1458.5 1081,-1464.5 1075,-1464.5 1075,-1464.5 930,-1464.5 930,-1464.5 924,-1464.5 918,-1458.5 918,-1452.5 918,-1452.5 918,-1292.5 918,-1292.5 918,-1286.5 924,-1280.5 930,-1280.5"/>
<text text-anchor="middle" x="1002.5" y="-1449.3" font-family="Times,serif" font-size="14.00" fill="#000000">name=%sin</text>
<polyline fill="none" stroke="black" points="918,-1441.5 1087,-1441.5 "/>
<text text-anchor="middle" x="1002.5" y="-1426.3" font-family="Times,serif" font-size="14.00" fill="#000000">op_code=placeholder</text>
<polyline fill="none" stroke="black" points="918,-1418.5 1087,-1418.5 "/>
<text text-anchor="middle" x="1002.5" y="-1403.3" font-family="Times,serif" font-size="14.00" fill="#000000">target=sin</text>
<polyline fill="none" stroke="black" points="918,-1395.5 1087,-1395.5 "/>
<text text-anchor="middle" x="1002.5" y="-1380.3" font-family="Times,serif" font-size="14.00" fill="#000000">num_users=1</text>
<polyline fill="none" stroke="black" points="918,-1372.5 1087,-1372.5 "/>
<text text-anchor="middle" x="1002.5" y="-1357.3" font-family="Times,serif" font-size="14.00" fill="#000000">dtype=torch.float32</text>
<polyline fill="none" stroke="black" points="918,-1349.5 1087,-1349.5 "/>
<text text-anchor="middle" x="1002.5" y="-1334.3" font-family="Times,serif" font-size="14.00" fill="#000000">shape=(1000,)</text>
<polyline fill="none" stroke="black" points="918,-1326.5 1087,-1326.5 "/>
<text text-anchor="middle" x="1002.5" y="-1311.3" font-family="Times,serif" font-size="14.00" fill="#000000">requires_grad=False</text>
<polyline fill="none" stroke="black" points="918,-1303.5 1087,-1303.5 "/>
<text text-anchor="middle" x="1002.5" y="-1288.3" font-family="Times,serif" font-size="14.00" fill="#000000">stride=(1,)</text>
</g>
<!-- pow_4 -->
<g id="node11" class="node">
<title>pow_4</title>
<path fill="#fff0f5" stroke="black" d="M858.5,-1036.5C858.5,-1036.5 1146.5,-1036.5 1146.5,-1036.5 1152.5,-1036.5 1158.5,-1042.5 1158.5,-1048.5 1158.5,-1048.5 1158.5,-1231.5 1158.5,-1231.5 1158.5,-1237.5 1152.5,-1243.5 1146.5,-1243.5 1146.5,-1243.5 858.5,-1243.5 858.5,-1243.5 852.5,-1243.5 846.5,-1237.5 846.5,-1231.5 846.5,-1231.5 846.5,-1048.5 846.5,-1048.5 846.5,-1042.5 852.5,-1036.5 858.5,-1036.5"/>
<text text-anchor="middle" x="1002.5" y="-1228.3" font-family="Times,serif" font-size="14.00" fill="#000000">name=%pow_4</text>
<polyline fill="none" stroke="black" points="846.5,-1220.5 1158.5,-1220.5 "/>
<text text-anchor="middle" x="1002.5" y="-1205.3" font-family="Times,serif" font-size="14.00" fill="#000000">op_code=call_function</text>
<polyline fill="none" stroke="black" points="846.5,-1197.5 1158.5,-1197.5 "/>
<text text-anchor="middle" x="1002.5" y="-1182.3" font-family="Times,serif" font-size="14.00" fill="#000000">target=torch.ops.aten.pow.Tensor_Scalar</text>
<polyline fill="none" stroke="black" points="846.5,-1174.5 1158.5,-1174.5 "/>
<text text-anchor="middle" x="1002.5" y="-1159.3" font-family="Times,serif" font-size="14.00" fill="#000000">args=(1.0,)</text>
<polyline fill="none" stroke="black" points="846.5,-1151.5 1158.5,-1151.5 "/>
<text text-anchor="middle" x="1002.5" y="-1136.3" font-family="Times,serif" font-size="14.00" fill="#000000">num_users=1</text>
<polyline fill="none" stroke="black" points="846.5,-1128.5 1158.5,-1128.5 "/>
<text text-anchor="middle" x="1002.5" y="-1113.3" font-family="Times,serif" font-size="14.00" fill="#000000">dtype=torch.float32</text>
<polyline fill="none" stroke="black" points="846.5,-1105.5 1158.5,-1105.5 "/>
<text text-anchor="middle" x="1002.5" y="-1090.3" font-family="Times,serif" font-size="14.00" fill="#000000">shape=(1000,)</text>
<polyline fill="none" stroke="black" points="846.5,-1082.5 1158.5,-1082.5 "/>
<text text-anchor="middle" x="1002.5" y="-1067.3" font-family="Times,serif" font-size="14.00" fill="#000000">requires_grad=False</text>
<polyline fill="none" stroke="black" points="846.5,-1059.5 1158.5,-1059.5 "/>
<text text-anchor="middle" x="1002.5" y="-1044.3" font-family="Times,serif" font-size="14.00" fill="#000000">stride=(1,)</text>
</g>
<!-- sin&#45;&gt;pow_4 -->
<g id="edge3" class="edge">
<title>sin&#45;&gt;pow_4</title>
<path fill="none" stroke="black" d="M1002.5,-1280.4C1002.5,-1271.62 1002.5,-1262.65 1002.5,-1253.7"/>
<polygon fill="black" stroke="black" points="1006,-1253.61 1002.5,-1243.61 999,-1253.61 1006,-1253.61"/>
</g>
<!-- cos -->
<g id="node3" class="node">
<title>cos</title>
<path fill="AliceBlue" stroke="black" d="M468,-1280.5C468,-1280.5 613,-1280.5 613,-1280.5 619,-1280.5 625,-1286.5 625,-1292.5 625,-1292.5 625,-1452.5 625,-1452.5 625,-1458.5 619,-1464.5 613,-1464.5 613,-1464.5 468,-1464.5 468,-1464.5 462,-1464.5 456,-1458.5 456,-1452.5 456,-1452.5 456,-1292.5 456,-1292.5 456,-1286.5 462,-1280.5 468,-1280.5"/>
<text text-anchor="middle" x="540.5" y="-1449.3" font-family="Times,serif" font-size="14.00" fill="#000000">name=%cos</text>
<polyline fill="none" stroke="black" points="456,-1441.5 625,-1441.5 "/>
<text text-anchor="middle" x="540.5" y="-1426.3" font-family="Times,serif" font-size="14.00" fill="#000000">op_code=placeholder</text>
<polyline fill="none" stroke="black" points="456,-1418.5 625,-1418.5 "/>
<text text-anchor="middle" x="540.5" y="-1403.3" font-family="Times,serif" font-size="14.00" fill="#000000">target=cos</text>
<polyline fill="none" stroke="black" points="456,-1395.5 625,-1395.5 "/>
<text text-anchor="middle" x="540.5" y="-1380.3" font-family="Times,serif" font-size="14.00" fill="#000000">num_users=1</text>
<polyline fill="none" stroke="black" points="456,-1372.5 625,-1372.5 "/>
<text text-anchor="middle" x="540.5" y="-1357.3" font-family="Times,serif" font-size="14.00" fill="#000000">dtype=torch.float32</text>
<polyline fill="none" stroke="black" points="456,-1349.5 625,-1349.5 "/>
<text text-anchor="middle" x="540.5" y="-1334.3" font-family="Times,serif" font-size="14.00" fill="#000000">shape=(1000,)</text>
<polyline fill="none" stroke="black" points="456,-1326.5 625,-1326.5 "/>
<text text-anchor="middle" x="540.5" y="-1311.3" font-family="Times,serif" font-size="14.00" fill="#000000">requires_grad=False</text>
<polyline fill="none" stroke="black" points="456,-1303.5 625,-1303.5 "/>
<text text-anchor="middle" x="540.5" y="-1288.3" font-family="Times,serif" font-size="14.00" fill="#000000">stride=(1,)</text>
</g>
<!-- pow_3 -->
<g id="node5" class="node">
<title>pow_3</title>
<path fill="#fff0f5" stroke="black" d="M396.5,-1036.5C396.5,-1036.5 684.5,-1036.5 684.5,-1036.5 690.5,-1036.5 696.5,-1042.5 696.5,-1048.5 696.5,-1048.5 696.5,-1231.5 696.5,-1231.5 696.5,-1237.5 690.5,-1243.5 684.5,-1243.5 684.5,-1243.5 396.5,-1243.5 396.5,-1243.5 390.5,-1243.5 384.5,-1237.5 384.5,-1231.5 384.5,-1231.5 384.5,-1048.5 384.5,-1048.5 384.5,-1042.5 390.5,-1036.5 396.5,-1036.5"/>
<text text-anchor="middle" x="540.5" y="-1228.3" font-family="Times,serif" font-size="14.00" fill="#000000">name=%pow_3</text>
<polyline fill="none" stroke="black" points="384.5,-1220.5 696.5,-1220.5 "/>
<text text-anchor="middle" x="540.5" y="-1205.3" font-family="Times,serif" font-size="14.00" fill="#000000">op_code=call_function</text>
<polyline fill="none" stroke="black" points="384.5,-1197.5 696.5,-1197.5 "/>
<text text-anchor="middle" x="540.5" y="-1182.3" font-family="Times,serif" font-size="14.00" fill="#000000">target=torch.ops.aten.pow.Tensor_Scalar</text>
<polyline fill="none" stroke="black" points="384.5,-1174.5 696.5,-1174.5 "/>
<text text-anchor="middle" x="540.5" y="-1159.3" font-family="Times,serif" font-size="14.00" fill="#000000">args=(1.0,)</text>
<polyline fill="none" stroke="black" points="384.5,-1151.5 696.5,-1151.5 "/>
<text text-anchor="middle" x="540.5" y="-1136.3" font-family="Times,serif" font-size="14.00" fill="#000000">num_users=1</text>
<polyline fill="none" stroke="black" points="384.5,-1128.5 696.5,-1128.5 "/>
<text text-anchor="middle" x="540.5" y="-1113.3" font-family="Times,serif" font-size="14.00" fill="#000000">dtype=torch.float32</text>
<polyline fill="none" stroke="black" points="384.5,-1105.5 696.5,-1105.5 "/>
<text text-anchor="middle" x="540.5" y="-1090.3" font-family="Times,serif" font-size="14.00" fill="#000000">shape=(1000,)</text>
<polyline fill="none" stroke="black" points="384.5,-1082.5 696.5,-1082.5 "/>
<text text-anchor="middle" x="540.5" y="-1067.3" font-family="Times,serif" font-size="14.00" fill="#000000">requires_grad=False</text>
<polyline fill="none" stroke="black" points="384.5,-1059.5 696.5,-1059.5 "/>
<text text-anchor="middle" x="540.5" y="-1044.3" font-family="Times,serif" font-size="14.00" fill="#000000">stride=(1,)</text>
</g>
<!-- cos&#45;&gt;pow_3 -->
<g id="edge4" class="edge">
<title>cos&#45;&gt;pow_3</title>
<path fill="none" stroke="black" d="M540.5,-1280.4C540.5,-1271.62 540.5,-1262.65 540.5,-1253.7"/>
<polygon fill="black" stroke="black" points="544,-1253.61 540.5,-1243.61 537,-1253.61 544,-1253.61"/>
</g>
<!-- tangents_1 -->
<g id="node4" class="node">
<title>tangents_1</title>
<path fill="AliceBlue" stroke="black" d="M699,-804C699,-804 844,-804 844,-804 850,-804 856,-810 856,-816 856,-816 856,-976 856,-976 856,-982 850,-988 844,-988 844,-988 699,-988 699,-988 693,-988 687,-982 687,-976 687,-976 687,-816 687,-816 687,-810 693,-804 699,-804"/>
<text text-anchor="middle" x="771.5" y="-972.8" font-family="Times,serif" font-size="14.00" fill="#000000">name=%tangents_1</text>
<polyline fill="none" stroke="black" points="687,-965 856,-965 "/>
<text text-anchor="middle" x="771.5" y="-949.8" font-family="Times,serif" font-size="14.00" fill="#000000">op_code=placeholder</text>
<polyline fill="none" stroke="black" points="687,-942 856,-942 "/>
<text text-anchor="middle" x="771.5" y="-926.8" font-family="Times,serif" font-size="14.00" fill="#000000">target=tangents_1</text>
<polyline fill="none" stroke="black" points="687,-919 856,-919 "/>
<text text-anchor="middle" x="771.5" y="-903.8" font-family="Times,serif" font-size="14.00" fill="#000000">num_users=2</text>
<polyline fill="none" stroke="black" points="687,-896 856,-896 "/>
<text text-anchor="middle" x="771.5" y="-880.8" font-family="Times,serif" font-size="14.00" fill="#000000">dtype=torch.float32</text>
<polyline fill="none" stroke="black" points="687,-873 856,-873 "/>
<text text-anchor="middle" x="771.5" y="-857.8" font-family="Times,serif" font-size="14.00" fill="#000000">shape=(1000,)</text>
<polyline fill="none" stroke="black" points="687,-850 856,-850 "/>
<text text-anchor="middle" x="771.5" y="-834.8" font-family="Times,serif" font-size="14.00" fill="#000000">requires_grad=False</text>
<polyline fill="none" stroke="black" points="687,-827 856,-827 "/>
<text text-anchor="middle" x="771.5" y="-811.8" font-family="Times,serif" font-size="14.00" fill="#000000">stride=(1,)</text>
</g>
<!-- mul_1 -->
<g id="node7" class="node">
<title>mul_1</title>
<path fill="#ffe7ba" stroke="black" d="M567.5,-571.5C567.5,-571.5 803.5,-571.5 803.5,-571.5 809.5,-571.5 815.5,-577.5 815.5,-583.5 815.5,-583.5 815.5,-743.5 815.5,-743.5 815.5,-749.5 809.5,-755.5 803.5,-755.5 803.5,-755.5 567.5,-755.5 567.5,-755.5 561.5,-755.5 555.5,-749.5 555.5,-743.5 555.5,-743.5 555.5,-583.5 555.5,-583.5 555.5,-577.5 561.5,-571.5 567.5,-571.5"/>
<text text-anchor="middle" x="685.5" y="-740.3" font-family="Times,serif" font-size="14.00" fill="#000000">name=%mul_1</text>
<polyline fill="none" stroke="black" points="555.5,-732.5 815.5,-732.5 "/>
<text text-anchor="middle" x="685.5" y="-717.3" font-family="Times,serif" font-size="14.00" fill="#000000">op_code=call_function</text>
<polyline fill="none" stroke="black" points="555.5,-709.5 815.5,-709.5 "/>
<text text-anchor="middle" x="685.5" y="-694.3" font-family="Times,serif" font-size="14.00" fill="#000000">target=torch.ops.aten.mul.Tensor</text>
<polyline fill="none" stroke="black" points="555.5,-686.5 815.5,-686.5 "/>
<text text-anchor="middle" x="685.5" y="-671.3" font-family="Times,serif" font-size="14.00" fill="#000000">num_users=1</text>
<polyline fill="none" stroke="black" points="555.5,-663.5 815.5,-663.5 "/>
<text text-anchor="middle" x="685.5" y="-648.3" font-family="Times,serif" font-size="14.00" fill="#000000">dtype=torch.float32</text>
<polyline fill="none" stroke="black" points="555.5,-640.5 815.5,-640.5 "/>
<text text-anchor="middle" x="685.5" y="-625.3" font-family="Times,serif" font-size="14.00" fill="#000000">shape=(1000,)</text>
<polyline fill="none" stroke="black" points="555.5,-617.5 815.5,-617.5 "/>
<text text-anchor="middle" x="685.5" y="-602.3" font-family="Times,serif" font-size="14.00" fill="#000000">requires_grad=False</text>
<polyline fill="none" stroke="black" points="555.5,-594.5 815.5,-594.5 "/>
<text text-anchor="middle" x="685.5" y="-579.3" font-family="Times,serif" font-size="14.00" fill="#000000">stride=(1,)</text>
</g>
<!-- tangents_1&#45;&gt;mul_1 -->
<g id="edge5" class="edge">
<title>tangents_1&#45;&gt;mul_1</title>
<path fill="none" stroke="black" d="M737.51,-803.9C732.8,-791.27 727.93,-778.23 723.16,-765.42"/>
<polygon fill="black" stroke="black" points="726.3,-763.84 719.52,-755.69 719.74,-766.29 726.3,-763.84"/>
</g>
<!-- mul_4 -->
<g id="node13" class="node">
<title>mul_4</title>
<path fill="#ffe7ba" stroke="black" d="M845.5,-571.5C845.5,-571.5 1081.5,-571.5 1081.5,-571.5 1087.5,-571.5 1093.5,-577.5 1093.5,-583.5 1093.5,-583.5 1093.5,-743.5 1093.5,-743.5 1093.5,-749.5 1087.5,-755.5 1081.5,-755.5 1081.5,-755.5 845.5,-755.5 845.5,-755.5 839.5,-755.5 833.5,-749.5 833.5,-743.5 833.5,-743.5 833.5,-583.5 833.5,-583.5 833.5,-577.5 839.5,-571.5 845.5,-571.5"/>
<text text-anchor="middle" x="963.5" y="-740.3" font-family="Times,serif" font-size="14.00" fill="#000000">name=%mul_4</text>
<polyline fill="none" stroke="black" points="833.5,-732.5 1093.5,-732.5 "/>
<text text-anchor="middle" x="963.5" y="-717.3" font-family="Times,serif" font-size="14.00" fill="#000000">op_code=call_function</text>
<polyline fill="none" stroke="black" points="833.5,-709.5 1093.5,-709.5 "/>
<text text-anchor="middle" x="963.5" y="-694.3" font-family="Times,serif" font-size="14.00" fill="#000000">target=torch.ops.aten.mul.Tensor</text>
<polyline fill="none" stroke="black" points="833.5,-686.5 1093.5,-686.5 "/>
<text text-anchor="middle" x="963.5" y="-671.3" font-family="Times,serif" font-size="14.00" fill="#000000">num_users=1</text>
<polyline fill="none" stroke="black" points="833.5,-663.5 1093.5,-663.5 "/>
<text text-anchor="middle" x="963.5" y="-648.3" font-family="Times,serif" font-size="14.00" fill="#000000">dtype=torch.float32</text>
<polyline fill="none" stroke="black" points="833.5,-640.5 1093.5,-640.5 "/>
<text text-anchor="middle" x="963.5" y="-625.3" font-family="Times,serif" font-size="14.00" fill="#000000">shape=(1000,)</text>
<polyline fill="none" stroke="black" points="833.5,-617.5 1093.5,-617.5 "/>
<text text-anchor="middle" x="963.5" y="-602.3" font-family="Times,serif" font-size="14.00" fill="#000000">requires_grad=False</text>
<polyline fill="none" stroke="black" points="833.5,-594.5 1093.5,-594.5 "/>
<text text-anchor="middle" x="963.5" y="-579.3" font-family="Times,serif" font-size="14.00" fill="#000000">stride=(1,)</text>
</g>
<!-- tangents_1&#45;&gt;mul_4 -->
<g id="edge6" class="edge">
<title>tangents_1&#45;&gt;mul_4</title>
<path fill="none" stroke="black" d="M847.38,-803.9C858.42,-790.65 869.84,-776.95 881,-763.54"/>
<polygon fill="black" stroke="black" points="883.83,-765.62 887.54,-755.69 878.45,-761.14 883.83,-765.62"/>
</g>
<!-- mul -->
<g id="node6" class="node">
<title>mul</title>
<path fill="#ffe1ff" stroke="black" d="M424,-792.5C424,-792.5 657,-792.5 657,-792.5 663,-792.5 669,-798.5 669,-804.5 669,-804.5 669,-987.5 669,-987.5 669,-993.5 663,-999.5 657,-999.5 657,-999.5 424,-999.5 424,-999.5 418,-999.5 412,-993.5 412,-987.5 412,-987.5 412,-804.5 412,-804.5 412,-798.5 418,-792.5 424,-792.5"/>
<text text-anchor="middle" x="540.5" y="-984.3" font-family="Times,serif" font-size="14.00" fill="#000000">name=%mul</text>
<polyline fill="none" stroke="black" points="412,-976.5 669,-976.5 "/>
<text text-anchor="middle" x="540.5" y="-961.3" font-family="Times,serif" font-size="14.00" fill="#000000">op_code=call_function</text>
<polyline fill="none" stroke="black" points="412,-953.5 669,-953.5 "/>
<text text-anchor="middle" x="540.5" y="-938.3" font-family="Times,serif" font-size="14.00" fill="#000000">target=torch.ops.aten.mul.Scalar</text>
<polyline fill="none" stroke="black" points="412,-930.5 669,-930.5 "/>
<text text-anchor="middle" x="540.5" y="-915.3" font-family="Times,serif" font-size="14.00" fill="#000000">args=(2.0,)</text>
<polyline fill="none" stroke="black" points="412,-907.5 669,-907.5 "/>
<text text-anchor="middle" x="540.5" y="-892.3" font-family="Times,serif" font-size="14.00" fill="#000000">num_users=1</text>
<polyline fill="none" stroke="black" points="412,-884.5 669,-884.5 "/>
<text text-anchor="middle" x="540.5" y="-869.3" font-family="Times,serif" font-size="14.00" fill="#000000">dtype=torch.float32</text>
<polyline fill="none" stroke="black" points="412,-861.5 669,-861.5 "/>
<text text-anchor="middle" x="540.5" y="-846.3" font-family="Times,serif" font-size="14.00" fill="#000000">shape=(1000,)</text>
<polyline fill="none" stroke="black" points="412,-838.5 669,-838.5 "/>
<text text-anchor="middle" x="540.5" y="-823.3" font-family="Times,serif" font-size="14.00" fill="#000000">requires_grad=False</text>
<polyline fill="none" stroke="black" points="412,-815.5 669,-815.5 "/>
<text text-anchor="middle" x="540.5" y="-800.3" font-family="Times,serif" font-size="14.00" fill="#000000">stride=(1,)</text>
</g>
<!-- pow_3&#45;&gt;mul -->
<g id="edge7" class="edge">
<title>pow_3&#45;&gt;mul</title>
<path fill="none" stroke="black" d="M540.5,-1036.37C540.5,-1027.67 540.5,-1018.83 540.5,-1010.06"/>
<polygon fill="black" stroke="black" points="544,-1009.79 540.5,-999.79 537,-1009.79 544,-1009.79"/>
</g>
<!-- mul&#45;&gt;mul_1 -->
<g id="edge8" class="edge">
<title>mul&#45;&gt;mul_1</title>
<path fill="none" stroke="black" d="M605.15,-792.22C610.94,-783.03 616.78,-773.74 622.55,-764.57"/>
<polygon fill="black" stroke="black" points="625.68,-766.16 628.05,-755.83 619.76,-762.43 625.68,-766.16"/>
</g>
<!-- mul_2 -->
<g id="node10" class="node">
<title>mul_2</title>
<path fill="#ffe7ba" stroke="black" d="M289.5,-350.5C289.5,-350.5 525.5,-350.5 525.5,-350.5 531.5,-350.5 537.5,-356.5 537.5,-362.5 537.5,-362.5 537.5,-522.5 537.5,-522.5 537.5,-528.5 531.5,-534.5 525.5,-534.5 525.5,-534.5 289.5,-534.5 289.5,-534.5 283.5,-534.5 277.5,-528.5 277.5,-522.5 277.5,-522.5 277.5,-362.5 277.5,-362.5 277.5,-356.5 283.5,-350.5 289.5,-350.5"/>
<text text-anchor="middle" x="407.5" y="-519.3" font-family="Times,serif" font-size="14.00" fill="#000000">name=%mul_2</text>
<polyline fill="none" stroke="black" points="277.5,-511.5 537.5,-511.5 "/>
<text text-anchor="middle" x="407.5" y="-496.3" font-family="Times,serif" font-size="14.00" fill="#000000">op_code=call_function</text>
<polyline fill="none" stroke="black" points="277.5,-488.5 537.5,-488.5 "/>
<text text-anchor="middle" x="407.5" y="-473.3" font-family="Times,serif" font-size="14.00" fill="#000000">target=torch.ops.aten.mul.Tensor</text>
<polyline fill="none" stroke="black" points="277.5,-465.5 537.5,-465.5 "/>
<text text-anchor="middle" x="407.5" y="-450.3" font-family="Times,serif" font-size="14.00" fill="#000000">num_users=1</text>
<polyline fill="none" stroke="black" points="277.5,-442.5 537.5,-442.5 "/>
<text text-anchor="middle" x="407.5" y="-427.3" font-family="Times,serif" font-size="14.00" fill="#000000">dtype=torch.float32</text>
<polyline fill="none" stroke="black" points="277.5,-419.5 537.5,-419.5 "/>
<text text-anchor="middle" x="407.5" y="-404.3" font-family="Times,serif" font-size="14.00" fill="#000000">shape=(1000,)</text>
<polyline fill="none" stroke="black" points="277.5,-396.5 537.5,-396.5 "/>
<text text-anchor="middle" x="407.5" y="-381.3" font-family="Times,serif" font-size="14.00" fill="#000000">requires_grad=False</text>
<polyline fill="none" stroke="black" points="277.5,-373.5 537.5,-373.5 "/>
<text text-anchor="middle" x="407.5" y="-358.3" font-family="Times,serif" font-size="14.00" fill="#000000">stride=(1,)</text>
</g>
<!-- mul_1&#45;&gt;mul_2 -->
<g id="edge9" class="edge">
<title>mul_1&#45;&gt;mul_2</title>
<path fill="none" stroke="black" d="M569.62,-571.21C556.91,-561.2 543.93,-550.98 531.14,-540.9"/>
<polygon fill="black" stroke="black" points="533.22,-538.08 523.2,-534.64 528.89,-543.58 533.22,-538.08"/>
</g>
<!-- neg -->
<g id="node9" class="node">
<title>neg</title>
<path fill="#aeeeee" stroke="black" d="M12,-571.5C12,-571.5 249,-571.5 249,-571.5 255,-571.5 261,-577.5 261,-583.5 261,-583.5 261,-743.5 261,-743.5 261,-749.5 255,-755.5 249,-755.5 249,-755.5 12,-755.5 12,-755.5 6,-755.5 0,-749.5 0,-743.5 0,-743.5 0,-583.5 0,-583.5 0,-577.5 6,-571.5 12,-571.5"/>
<text text-anchor="middle" x="130.5" y="-740.3" font-family="Times,serif" font-size="14.00" fill="#000000">name=%neg</text>
<polyline fill="none" stroke="black" points="0,-732.5 261,-732.5 "/>
<text text-anchor="middle" x="130.5" y="-717.3" font-family="Times,serif" font-size="14.00" fill="#000000">op_code=call_function</text>
<polyline fill="none" stroke="black" points="0,-709.5 261,-709.5 "/>
<text text-anchor="middle" x="130.5" y="-694.3" font-family="Times,serif" font-size="14.00" fill="#000000">target=torch.ops.aten.neg.default</text>
<polyline fill="none" stroke="black" points="0,-686.5 261,-686.5 "/>
<text text-anchor="middle" x="130.5" y="-671.3" font-family="Times,serif" font-size="14.00" fill="#000000">num_users=1</text>
<polyline fill="none" stroke="black" points="0,-663.5 261,-663.5 "/>
<text text-anchor="middle" x="130.5" y="-648.3" font-family="Times,serif" font-size="14.00" fill="#000000">dtype=torch.float32</text>
<polyline fill="none" stroke="black" points="0,-640.5 261,-640.5 "/>
<text text-anchor="middle" x="130.5" y="-625.3" font-family="Times,serif" font-size="14.00" fill="#000000">shape=(1000,)</text>
<polyline fill="none" stroke="black" points="0,-617.5 261,-617.5 "/>
<text text-anchor="middle" x="130.5" y="-602.3" font-family="Times,serif" font-size="14.00" fill="#000000">requires_grad=False</text>
<polyline fill="none" stroke="black" points="0,-594.5 261,-594.5 "/>
<text text-anchor="middle" x="130.5" y="-579.3" font-family="Times,serif" font-size="14.00" fill="#000000">stride=(1,)</text>
</g>
<!-- sin_1&#45;&gt;neg -->
<g id="edge10" class="edge">
<title>sin_1&#45;&gt;neg</title>
<path fill="none" stroke="black" d="M163.16,-803.9C160.23,-791.39 157.2,-778.48 154.23,-765.8"/>
<polygon fill="black" stroke="black" points="157.55,-764.63 151.86,-755.69 150.74,-766.23 157.55,-764.63"/>
</g>
<!-- neg&#45;&gt;mul_2 -->
<g id="edge11" class="edge">
<title>neg&#45;&gt;mul_2</title>
<path fill="none" stroke="black" d="M245.97,-571.21C258.63,-561.2 271.56,-550.98 284.31,-540.9"/>
<polygon fill="black" stroke="black" points="286.55,-543.59 292.22,-534.64 282.2,-538.1 286.55,-543.59"/>
</g>
<!-- add_1 -->
<g id="node16" class="node">
<title>add_1</title>
<path fill="#ffe4e1" stroke="black" d="M429,-129.5C429,-129.5 664,-129.5 664,-129.5 670,-129.5 676,-135.5 676,-141.5 676,-141.5 676,-301.5 676,-301.5 676,-307.5 670,-313.5 664,-313.5 664,-313.5 429,-313.5 429,-313.5 423,-313.5 417,-307.5 417,-301.5 417,-301.5 417,-141.5 417,-141.5 417,-135.5 423,-129.5 429,-129.5"/>
<text text-anchor="middle" x="546.5" y="-298.3" font-family="Times,serif" font-size="14.00" fill="#000000">name=%add_1</text>
<polyline fill="none" stroke="black" points="417,-290.5 676,-290.5 "/>
<text text-anchor="middle" x="546.5" y="-275.3" font-family="Times,serif" font-size="14.00" fill="#000000">op_code=call_function</text>
<polyline fill="none" stroke="black" points="417,-267.5 676,-267.5 "/>
<text text-anchor="middle" x="546.5" y="-252.3" font-family="Times,serif" font-size="14.00" fill="#000000">target=torch.ops.aten.add.Tensor</text>
<polyline fill="none" stroke="black" points="417,-244.5 676,-244.5 "/>
<text text-anchor="middle" x="546.5" y="-229.3" font-family="Times,serif" font-size="14.00" fill="#000000">num_users=1</text>
<polyline fill="none" stroke="black" points="417,-221.5 676,-221.5 "/>
<text text-anchor="middle" x="546.5" y="-206.3" font-family="Times,serif" font-size="14.00" fill="#000000">dtype=torch.float32</text>
<polyline fill="none" stroke="black" points="417,-198.5 676,-198.5 "/>
<text text-anchor="middle" x="546.5" y="-183.3" font-family="Times,serif" font-size="14.00" fill="#000000">shape=(1000,)</text>
<polyline fill="none" stroke="black" points="417,-175.5 676,-175.5 "/>
<text text-anchor="middle" x="546.5" y="-160.3" font-family="Times,serif" font-size="14.00" fill="#000000">requires_grad=False</text>
<polyline fill="none" stroke="black" points="417,-152.5 676,-152.5 "/>
<text text-anchor="middle" x="546.5" y="-137.3" font-family="Times,serif" font-size="14.00" fill="#000000">stride=(1,)</text>
</g>
<!-- mul_2&#45;&gt;add_1 -->
<g id="edge12" class="edge">
<title>mul_2&#45;&gt;add_1</title>
<path fill="none" stroke="black" d="M465.44,-350.21C471.32,-340.95 477.3,-331.52 483.23,-322.18"/>
<polygon fill="black" stroke="black" points="486.25,-323.96 488.65,-313.64 480.34,-320.21 486.25,-323.96"/>
</g>
<!-- mul_3 -->
<g id="node12" class="node">
<title>mul_3</title>
<path fill="#ffe1ff" stroke="black" d="M886,-792.5C886,-792.5 1119,-792.5 1119,-792.5 1125,-792.5 1131,-798.5 1131,-804.5 1131,-804.5 1131,-987.5 1131,-987.5 1131,-993.5 1125,-999.5 1119,-999.5 1119,-999.5 886,-999.5 886,-999.5 880,-999.5 874,-993.5 874,-987.5 874,-987.5 874,-804.5 874,-804.5 874,-798.5 880,-792.5 886,-792.5"/>
<text text-anchor="middle" x="1002.5" y="-984.3" font-family="Times,serif" font-size="14.00" fill="#000000">name=%mul_3</text>
<polyline fill="none" stroke="black" points="874,-976.5 1131,-976.5 "/>
<text text-anchor="middle" x="1002.5" y="-961.3" font-family="Times,serif" font-size="14.00" fill="#000000">op_code=call_function</text>
<polyline fill="none" stroke="black" points="874,-953.5 1131,-953.5 "/>
<text text-anchor="middle" x="1002.5" y="-938.3" font-family="Times,serif" font-size="14.00" fill="#000000">target=torch.ops.aten.mul.Scalar</text>
<polyline fill="none" stroke="black" points="874,-930.5 1131,-930.5 "/>
<text text-anchor="middle" x="1002.5" y="-915.3" font-family="Times,serif" font-size="14.00" fill="#000000">args=(2.0,)</text>
<polyline fill="none" stroke="black" points="874,-907.5 1131,-907.5 "/>
<text text-anchor="middle" x="1002.5" y="-892.3" font-family="Times,serif" font-size="14.00" fill="#000000">num_users=1</text>
<polyline fill="none" stroke="black" points="874,-884.5 1131,-884.5 "/>
<text text-anchor="middle" x="1002.5" y="-869.3" font-family="Times,serif" font-size="14.00" fill="#000000">dtype=torch.float32</text>
<polyline fill="none" stroke="black" points="874,-861.5 1131,-861.5 "/>
<text text-anchor="middle" x="1002.5" y="-846.3" font-family="Times,serif" font-size="14.00" fill="#000000">shape=(1000,)</text>
<polyline fill="none" stroke="black" points="874,-838.5 1131,-838.5 "/>
<text text-anchor="middle" x="1002.5" y="-823.3" font-family="Times,serif" font-size="14.00" fill="#000000">requires_grad=False</text>
<polyline fill="none" stroke="black" points="874,-815.5 1131,-815.5 "/>
<text text-anchor="middle" x="1002.5" y="-800.3" font-family="Times,serif" font-size="14.00" fill="#000000">stride=(1,)</text>
</g>
<!-- pow_4&#45;&gt;mul_3 -->
<g id="edge13" class="edge">
<title>pow_4&#45;&gt;mul_3</title>
<path fill="none" stroke="black" d="M1002.5,-1036.37C1002.5,-1027.67 1002.5,-1018.83 1002.5,-1010.06"/>
<polygon fill="black" stroke="black" points="1006,-1009.79 1002.5,-999.79 999,-1009.79 1006,-1009.79"/>
</g>
<!-- mul_3&#45;&gt;mul_4 -->
<g id="edge14" class="edge">
<title>mul_3&#45;&gt;mul_4</title>
<path fill="none" stroke="black" d="M985.11,-792.22C983.62,-783.41 982.11,-774.5 980.62,-765.71"/>
<polygon fill="black" stroke="black" points="984.07,-765.11 978.95,-755.83 977.17,-766.28 984.07,-765.11"/>
</g>
<!-- mul_5 -->
<g id="node15" class="node">
<title>mul_5</title>
<path fill="#ffe7ba" stroke="black" d="M567.5,-350.5C567.5,-350.5 803.5,-350.5 803.5,-350.5 809.5,-350.5 815.5,-356.5 815.5,-362.5 815.5,-362.5 815.5,-522.5 815.5,-522.5 815.5,-528.5 809.5,-534.5 803.5,-534.5 803.5,-534.5 567.5,-534.5 567.5,-534.5 561.5,-534.5 555.5,-528.5 555.5,-522.5 555.5,-522.5 555.5,-362.5 555.5,-362.5 555.5,-356.5 561.5,-350.5 567.5,-350.5"/>
<text text-anchor="middle" x="685.5" y="-519.3" font-family="Times,serif" font-size="14.00" fill="#000000">name=%mul_5</text>
<polyline fill="none" stroke="black" points="555.5,-511.5 815.5,-511.5 "/>
<text text-anchor="middle" x="685.5" y="-496.3" font-family="Times,serif" font-size="14.00" fill="#000000">op_code=call_function</text>
<polyline fill="none" stroke="black" points="555.5,-488.5 815.5,-488.5 "/>
<text text-anchor="middle" x="685.5" y="-473.3" font-family="Times,serif" font-size="14.00" fill="#000000">target=torch.ops.aten.mul.Tensor</text>
<polyline fill="none" stroke="black" points="555.5,-465.5 815.5,-465.5 "/>
<text text-anchor="middle" x="685.5" y="-450.3" font-family="Times,serif" font-size="14.00" fill="#000000">num_users=1</text>
<polyline fill="none" stroke="black" points="555.5,-442.5 815.5,-442.5 "/>
<text text-anchor="middle" x="685.5" y="-427.3" font-family="Times,serif" font-size="14.00" fill="#000000">dtype=torch.float32</text>
<polyline fill="none" stroke="black" points="555.5,-419.5 815.5,-419.5 "/>
<text text-anchor="middle" x="685.5" y="-404.3" font-family="Times,serif" font-size="14.00" fill="#000000">shape=(1000,)</text>
<polyline fill="none" stroke="black" points="555.5,-396.5 815.5,-396.5 "/>
<text text-anchor="middle" x="685.5" y="-381.3" font-family="Times,serif" font-size="14.00" fill="#000000">requires_grad=False</text>
<polyline fill="none" stroke="black" points="555.5,-373.5 815.5,-373.5 "/>
<text text-anchor="middle" x="685.5" y="-358.3" font-family="Times,serif" font-size="14.00" fill="#000000">stride=(1,)</text>
</g>
<!-- mul_4&#45;&gt;mul_5 -->
<g id="edge15" class="edge">
<title>mul_4&#45;&gt;mul_5</title>
<path fill="none" stroke="black" d="M847.62,-571.21C834.91,-561.2 821.93,-550.98 809.14,-540.9"/>
<polygon fill="black" stroke="black" points="811.22,-538.08 801.2,-534.64 806.89,-543.58 811.22,-538.08"/>
</g>
<!-- cos_1&#45;&gt;mul_5 -->
<g id="edge16" class="edge">
<title>cos_1&#45;&gt;mul_5</title>
<path fill="none" stroke="black" d="M523.97,-571.21C536.63,-561.2 549.56,-550.98 562.31,-540.9"/>
<polygon fill="black" stroke="black" points="564.55,-543.59 570.22,-534.64 560.2,-538.1 564.55,-543.59"/>
</g>
<!-- mul_5&#45;&gt;add_1 -->
<g id="edge17" class="edge">
<title>mul_5&#45;&gt;add_1</title>
<path fill="none" stroke="black" d="M627.56,-350.21C621.68,-340.95 615.7,-331.52 609.77,-322.18"/>
<polygon fill="black" stroke="black" points="612.66,-320.21 604.35,-313.64 606.75,-323.96 612.66,-320.21"/>
</g>
<!-- output -->
<g id="node17" class="node">
<title>output</title>
<path fill="PowderBlue" stroke="black" d="M492,-0.5C492,-0.5 601,-0.5 601,-0.5 607,-0.5 613,-6.5 613,-12.5 613,-12.5 613,-80.5 613,-80.5 613,-86.5 607,-92.5 601,-92.5 601,-92.5 492,-92.5 492,-92.5 486,-92.5 480,-86.5 480,-80.5 480,-80.5 480,-12.5 480,-12.5 480,-6.5 486,-0.5 492,-0.5"/>
<text text-anchor="middle" x="546.5" y="-77.3" font-family="Times,serif" font-size="14.00" fill="#000000">name=%output</text>
<polyline fill="none" stroke="black" points="480,-69.5 613,-69.5 "/>
<text text-anchor="middle" x="546.5" y="-54.3" font-family="Times,serif" font-size="14.00" fill="#000000">op_code=output</text>
<polyline fill="none" stroke="black" points="480,-46.5 613,-46.5 "/>
<text text-anchor="middle" x="546.5" y="-31.3" font-family="Times,serif" font-size="14.00" fill="#000000">target=output</text>
<polyline fill="none" stroke="black" points="480,-23.5 613,-23.5 "/>
<text text-anchor="middle" x="546.5" y="-8.3" font-family="Times,serif" font-size="14.00" fill="#000000">num_users=0</text>
</g>
<!-- add_1&#45;&gt;output -->
<g id="edge18" class="edge">
<title>add_1&#45;&gt;output</title>
<path fill="none" stroke="black" d="M546.5,-129.44C546.5,-120.41 546.5,-111.45 546.5,-102.95"/>
<polygon fill="black" stroke="black" points="550,-102.84 546.5,-92.84 543,-102.84 550,-102.84"/>
</g>
</g>
</svg>
