<?xml version="1.0" encoding="UTF-8" standalone="no"?>
<!DOCTYPE svg PUBLIC "-//W3C//DTD SVG 1.1//EN"
 "http://www.w3.org/Graphics/SVG/1.1/DTD/svg11.dtd">
<!-- Generated by graphviz version 2.43.0 (0)
 -->
<!-- Title: fn Pages: 1 -->
<svg width="763pt" height="1008pt"
 viewBox="0.00 0.00 762.86 1008.00" xmlns="http://www.w3.org/2000/svg" xmlns:xlink="http://www.w3.org/1999/xlink">
<g id="graph0" class="graph" transform="scale(1 1) rotate(0) translate(4 1004)">
<title>fn</title>
<polygon fill="white" stroke="transparent" points="-4,4 -4,-1004 758.86,-1004 758.86,4 -4,4"/>
<!-- primals_1 -->
<g id="node1" class="node">
<title>primals_1</title>
<path fill="AliceBlue" stroke="black" d="M486.76,-815.5C486.76,-815.5 631.76,-815.5 631.76,-815.5 637.76,-815.5 643.76,-821.5 643.76,-827.5 643.76,-827.5 643.76,-987.5 643.76,-987.5 643.76,-993.5 637.76,-999.5 631.76,-999.5 631.76,-999.5 486.76,-999.5 486.76,-999.5 480.76,-999.5 474.76,-993.5 474.76,-987.5 474.76,-987.5 474.76,-827.5 474.76,-827.5 474.76,-821.5 480.76,-815.5 486.76,-815.5"/>
<text text-anchor="middle" x="559.26" y="-984.3" font-family="Times,serif" font-size="14.00" fill="#000000">name=%primals_1</text>
<polyline fill="none" stroke="black" points="474.76,-976.5 643.76,-976.5 "/>
<text text-anchor="middle" x="559.26" y="-961.3" font-family="Times,serif" font-size="14.00" fill="#000000">op_code=placeholder</text>
<polyline fill="none" stroke="black" points="474.76,-953.5 643.76,-953.5 "/>
<text text-anchor="middle" x="559.26" y="-938.3" font-family="Times,serif" font-size="14.00" fill="#000000">target=primals_1</text>
<polyline fill="none" stroke="black" points="474.76,-930.5 643.76,-930.5 "/>
<text text-anchor="middle" x="559.26" y="-915.3" font-family="Times,serif" font-size="14.00" fill="#000000">num_users=3</text>
<polyline fill="none" stroke="black" points="474.76,-907.5 643.76,-907.5 "/>
<text text-anchor="middle" x="559.26" y="-892.3" font-family="Times,serif" font-size="14.00" fill="#000000">dtype=torch.float32</text>
<polyline fill="none" stroke="black" points="474.76,-884.5 643.76,-884.5 "/>
<text text-anchor="middle" x="559.26" y="-869.3" font-family="Times,serif" font-size="14.00" fill="#000000">shape=(1000,)</text>
<polyline fill="none" stroke="black" points="474.76,-861.5 643.76,-861.5 "/>
<text text-anchor="middle" x="559.26" y="-846.3" font-family="Times,serif" font-size="14.00" fill="#000000">requires_grad=True</text>
<polyline fill="none" stroke="black" points="474.76,-838.5 643.76,-838.5 "/>
<text text-anchor="middle" x="559.26" y="-823.3" font-family="Times,serif" font-size="14.00" fill="#000000">stride=(1,)</text>
</g>
<!-- sin -->
<g id="node2" class="node">
<title>sin</title>
<path fill="#ffe4e1" stroke="black" d="M81.26,-594.5C81.26,-594.5 313.26,-594.5 313.26,-594.5 319.26,-594.5 325.26,-600.5 325.26,-606.5 325.26,-606.5 325.26,-766.5 325.26,-766.5 325.26,-772.5 319.26,-778.5 313.26,-778.5 313.26,-778.5 81.26,-778.5 81.26,-778.5 75.26,-778.5 69.26,-772.5 69.26,-766.5 69.26,-766.5 69.26,-606.5 69.26,-606.5 69.26,-600.5 75.26,-594.5 81.26,-594.5"/>
<text text-anchor="middle" x="197.26" y="-763.3" font-family="Times,serif" font-size="14.00" fill="#000000">name=%sin</text>
<polyline fill="none" stroke="black" points="69.26,-755.5 325.26,-755.5 "/>
<text text-anchor="middle" x="197.26" y="-740.3" font-family="Times,serif" font-size="14.00" fill="#000000">op_code=call_function</text>
<polyline fill="none" stroke="black" points="69.26,-732.5 325.26,-732.5 "/>
<text text-anchor="middle" x="197.26" y="-717.3" font-family="Times,serif" font-size="14.00" fill="#000000">target=torch.ops.aten.sin.default</text>
<polyline fill="none" stroke="black" points="69.26,-709.5 325.26,-709.5 "/>
<text text-anchor="middle" x="197.26" y="-694.3" font-family="Times,serif" font-size="14.00" fill="#000000">num_users=2</text>
<polyline fill="none" stroke="black" points="69.26,-686.5 325.26,-686.5 "/>
<text text-anchor="middle" x="197.26" y="-671.3" font-family="Times,serif" font-size="14.00" fill="#000000">dtype=torch.float32</text>
<polyline fill="none" stroke="black" points="69.26,-663.5 325.26,-663.5 "/>
<text text-anchor="middle" x="197.26" y="-648.3" font-family="Times,serif" font-size="14.00" fill="#000000">shape=(1000,)</text>
<polyline fill="none" stroke="black" points="69.26,-640.5 325.26,-640.5 "/>
<text text-anchor="middle" x="197.26" y="-625.3" font-family="Times,serif" font-size="14.00" fill="#000000">requires_grad=False</text>
<polyline fill="none" stroke="black" points="69.26,-617.5 325.26,-617.5 "/>
<text text-anchor="middle" x="197.26" y="-602.3" font-family="Times,serif" font-size="14.00" fill="#000000">stride=(1,)</text>
</g>
<!-- primals_1&#45;&gt;sin -->
<g id="edge1" class="edge">
<title>primals_1&#45;&gt;sin</title>
<path fill="none" stroke="black" d="M474.39,-855.15C432.68,-829.92 381.38,-798.89 334.3,-770.41"/>
<polygon fill="black" stroke="black" points="335.93,-767.3 325.57,-765.12 332.31,-773.29 335.93,-767.3"/>
</g>
<!-- cos -->
<g id="node4" class="node">
<title>cos</title>
<path fill="Coral" stroke="black" d="M442.26,-594.5C442.26,-594.5 676.26,-594.5 676.26,-594.5 682.26,-594.5 688.26,-600.5 688.26,-606.5 688.26,-606.5 688.26,-766.5 688.26,-766.5 688.26,-772.5 682.26,-778.5 676.26,-778.5 676.26,-778.5 442.26,-778.5 442.26,-778.5 436.26,-778.5 430.26,-772.5 430.26,-766.5 430.26,-766.5 430.26,-606.5 430.26,-606.5 430.26,-600.5 436.26,-594.5 442.26,-594.5"/>
<text text-anchor="middle" x="559.26" y="-763.3" font-family="Times,serif" font-size="14.00" fill="#000000">name=%cos</text>
<polyline fill="none" stroke="black" points="430.26,-755.5 688.26,-755.5 "/>
<text text-anchor="middle" x="559.26" y="-740.3" font-family="Times,serif" font-size="14.00" fill="#000000">op_code=call_function</text>
<polyline fill="none" stroke="black" points="430.26,-732.5 688.26,-732.5 "/>
<text text-anchor="middle" x="559.26" y="-717.3" font-family="Times,serif" font-size="14.00" fill="#000000">target=torch.ops.aten.cos.default</text>
<polyline fill="none" stroke="black" points="430.26,-709.5 688.26,-709.5 "/>
<text text-anchor="middle" x="559.26" y="-694.3" font-family="Times,serif" font-size="14.00" fill="#000000">num_users=2</text>
<polyline fill="none" stroke="black" points="430.26,-686.5 688.26,-686.5 "/>
<text text-anchor="middle" x="559.26" y="-671.3" font-family="Times,serif" font-size="14.00" fill="#000000">dtype=torch.float32</text>
<polyline fill="none" stroke="black" points="430.26,-663.5 688.26,-663.5 "/>
<text text-anchor="middle" x="559.26" y="-648.3" font-family="Times,serif" font-size="14.00" fill="#000000">shape=(1000,)</text>
<polyline fill="none" stroke="black" points="430.26,-640.5 688.26,-640.5 "/>
<text text-anchor="middle" x="559.26" y="-625.3" font-family="Times,serif" font-size="14.00" fill="#000000">requires_grad=False</text>
<polyline fill="none" stroke="black" points="430.26,-617.5 688.26,-617.5 "/>
<text text-anchor="middle" x="559.26" y="-602.3" font-family="Times,serif" font-size="14.00" fill="#000000">stride=(1,)</text>
</g>
<!-- primals_1&#45;&gt;cos -->
<g id="edge2" class="edge">
<title>primals_1&#45;&gt;cos</title>
<path fill="none" stroke="black" d="M559.26,-815.21C559.26,-806.52 559.26,-797.68 559.26,-788.9"/>
<polygon fill="black" stroke="black" points="562.76,-788.64 559.26,-778.64 555.76,-788.64 562.76,-788.64"/>
</g>
<!-- output -->
<g id="node7" class="node">
<title>output</title>
<path fill="PowderBlue" stroke="black" d="M564.76,-0.5C564.76,-0.5 673.76,-0.5 673.76,-0.5 679.76,-0.5 685.76,-6.5 685.76,-12.5 685.76,-12.5 685.76,-80.5 685.76,-80.5 685.76,-86.5 679.76,-92.5 673.76,-92.5 673.76,-92.5 564.76,-92.5 564.76,-92.5 558.76,-92.5 552.76,-86.5 552.76,-80.5 552.76,-80.5 552.76,-12.5 552.76,-12.5 552.76,-6.5 558.76,-0.5 564.76,-0.5"/>
<text text-anchor="middle" x="619.26" y="-77.3" font-family="Times,serif" font-size="14.00" fill="#000000">name=%output</text>
<polyline fill="none" stroke="black" points="552.76,-69.5 685.76,-69.5 "/>
<text text-anchor="middle" x="619.26" y="-54.3" font-family="Times,serif" font-size="14.00" fill="#000000">op_code=output</text>
<polyline fill="none" stroke="black" points="552.76,-46.5 685.76,-46.5 "/>
<text text-anchor="middle" x="619.26" y="-31.3" font-family="Times,serif" font-size="14.00" fill="#000000">target=output</text>
<polyline fill="none" stroke="black" points="552.76,-23.5 685.76,-23.5 "/>
<text text-anchor="middle" x="619.26" y="-8.3" font-family="Times,serif" font-size="14.00" fill="#000000">num_users=0</text>
</g>
<!-- primals_1&#45;&gt;output -->
<g id="edge3" class="edge">
<title>primals_1&#45;&gt;output</title>
<path fill="none" stroke="black" d="M643.94,-845.46C664.56,-826.47 684.37,-803.91 697.26,-779 742.81,-691.03 719.8,-656.85 726.26,-558 738.7,-367.57 792.18,-300.39 708.26,-129 703.2,-118.67 696.22,-109.02 688.37,-100.23"/>
<polygon fill="black" stroke="black" points="690.69,-97.59 681.27,-92.74 685.61,-102.41 690.69,-97.59"/>
</g>
<!-- pow_1 -->
<g id="node3" class="node">
<title>pow_1</title>
<path fill="#fff0f5" stroke="black" d="M53.26,-350.5C53.26,-350.5 341.26,-350.5 341.26,-350.5 347.26,-350.5 353.26,-356.5 353.26,-362.5 353.26,-362.5 353.26,-545.5 353.26,-545.5 353.26,-551.5 347.26,-557.5 341.26,-557.5 341.26,-557.5 53.26,-557.5 53.26,-557.5 47.26,-557.5 41.26,-551.5 41.26,-545.5 41.26,-545.5 41.26,-362.5 41.26,-362.5 41.26,-356.5 47.26,-350.5 53.26,-350.5"/>
<text text-anchor="middle" x="197.26" y="-542.3" font-family="Times,serif" font-size="14.00" fill="#000000">name=%pow_1</text>
<polyline fill="none" stroke="black" points="41.26,-534.5 353.26,-534.5 "/>
<text text-anchor="middle" x="197.26" y="-519.3" font-family="Times,serif" font-size="14.00" fill="#000000">op_code=call_function</text>
<polyline fill="none" stroke="black" points="41.26,-511.5 353.26,-511.5 "/>
<text text-anchor="middle" x="197.26" y="-496.3" font-family="Times,serif" font-size="14.00" fill="#000000">target=torch.ops.aten.pow.Tensor_Scalar</text>
<polyline fill="none" stroke="black" points="41.26,-488.5 353.26,-488.5 "/>
<text text-anchor="middle" x="197.26" y="-473.3" font-family="Times,serif" font-size="14.00" fill="#000000">args=(2,)</text>
<polyline fill="none" stroke="black" points="41.26,-465.5 353.26,-465.5 "/>
<text text-anchor="middle" x="197.26" y="-450.3" font-family="Times,serif" font-size="14.00" fill="#000000">num_users=1</text>
<polyline fill="none" stroke="black" points="41.26,-442.5 353.26,-442.5 "/>
<text text-anchor="middle" x="197.26" y="-427.3" font-family="Times,serif" font-size="14.00" fill="#000000">dtype=torch.float32</text>
<polyline fill="none" stroke="black" points="41.26,-419.5 353.26,-419.5 "/>
<text text-anchor="middle" x="197.26" y="-404.3" font-family="Times,serif" font-size="14.00" fill="#000000">shape=(1000,)</text>
<polyline fill="none" stroke="black" points="41.26,-396.5 353.26,-396.5 "/>
<text text-anchor="middle" x="197.26" y="-381.3" font-family="Times,serif" font-size="14.00" fill="#000000">requires_grad=False</text>
<polyline fill="none" stroke="black" points="41.26,-373.5 353.26,-373.5 "/>
<text text-anchor="middle" x="197.26" y="-358.3" font-family="Times,serif" font-size="14.00" fill="#000000">stride=(1,)</text>
</g>
<!-- sin&#45;&gt;pow_1 -->
<g id="edge4" class="edge">
<title>sin&#45;&gt;pow_1</title>
<path fill="none" stroke="black" d="M197.26,-594.4C197.26,-585.62 197.26,-576.65 197.26,-567.7"/>
<polygon fill="black" stroke="black" points="200.76,-567.61 197.26,-557.61 193.76,-567.61 200.76,-567.61"/>
</g>
<!-- sin&#45;&gt;output -->
<g id="edge5" class="edge">
<title>sin&#45;&gt;output</title>
<path fill="none" stroke="black" d="M69.25,-607.34C54.35,-592.83 41.28,-576.36 32.26,-558 -8.48,-475.02 -12.67,-430.79 32.26,-350 137.9,-160.08 408.95,-85.56 542.52,-59.67"/>
<polygon fill="black" stroke="black" points="543.5,-63.05 552.67,-57.75 542.2,-56.17 543.5,-63.05"/>
</g>
<!-- add -->
<g id="node6" class="node">
<title>add</title>
<path fill="#ffe4e1" stroke="black" d="M409.76,-129.5C409.76,-129.5 644.76,-129.5 644.76,-129.5 650.76,-129.5 656.76,-135.5 656.76,-141.5 656.76,-141.5 656.76,-301.5 656.76,-301.5 656.76,-307.5 650.76,-313.5 644.76,-313.5 644.76,-313.5 409.76,-313.5 409.76,-313.5 403.76,-313.5 397.76,-307.5 397.76,-301.5 397.76,-301.5 397.76,-141.5 397.76,-141.5 397.76,-135.5 403.76,-129.5 409.76,-129.5"/>
<text text-anchor="middle" x="527.26" y="-298.3" font-family="Times,serif" font-size="14.00" fill="#000000">name=%add</text>
<polyline fill="none" stroke="black" points="397.76,-290.5 656.76,-290.5 "/>
<text text-anchor="middle" x="527.26" y="-275.3" font-family="Times,serif" font-size="14.00" fill="#000000">op_code=call_function</text>
<polyline fill="none" stroke="black" points="397.76,-267.5 656.76,-267.5 "/>
<text text-anchor="middle" x="527.26" y="-252.3" font-family="Times,serif" font-size="14.00" fill="#000000">target=torch.ops.aten.add.Tensor</text>
<polyline fill="none" stroke="black" points="397.76,-244.5 656.76,-244.5 "/>
<text text-anchor="middle" x="527.26" y="-229.3" font-family="Times,serif" font-size="14.00" fill="#000000">num_users=1</text>
<polyline fill="none" stroke="black" points="397.76,-221.5 656.76,-221.5 "/>
<text text-anchor="middle" x="527.26" y="-206.3" font-family="Times,serif" font-size="14.00" fill="#000000">dtype=torch.float32</text>
<polyline fill="none" stroke="black" points="397.76,-198.5 656.76,-198.5 "/>
<text text-anchor="middle" x="527.26" y="-183.3" font-family="Times,serif" font-size="14.00" fill="#000000">shape=(1000,)</text>
<polyline fill="none" stroke="black" points="397.76,-175.5 656.76,-175.5 "/>
<text text-anchor="middle" x="527.26" y="-160.3" font-family="Times,serif" font-size="14.00" fill="#000000">requires_grad=False</text>
<polyline fill="none" stroke="black" points="397.76,-152.5 656.76,-152.5 "/>
<text text-anchor="middle" x="527.26" y="-137.3" font-family="Times,serif" font-size="14.00" fill="#000000">stride=(1,)</text>
</g>
<!-- pow_1&#45;&gt;add -->
<g id="edge6" class="edge">
<title>pow_1&#45;&gt;add</title>
<path fill="none" stroke="black" d="M344.41,-350.22C359.34,-339.79 374.48,-329.22 389.31,-318.85"/>
<polygon fill="black" stroke="black" points="391.33,-321.72 397.52,-313.12 387.32,-315.98 391.33,-321.72"/>
</g>
<!-- pow_2 -->
<g id="node5" class="node">
<title>pow_2</title>
<path fill="#fff0f5" stroke="black" d="M383.26,-350.5C383.26,-350.5 671.26,-350.5 671.26,-350.5 677.26,-350.5 683.26,-356.5 683.26,-362.5 683.26,-362.5 683.26,-545.5 683.26,-545.5 683.26,-551.5 677.26,-557.5 671.26,-557.5 671.26,-557.5 383.26,-557.5 383.26,-557.5 377.26,-557.5 371.26,-551.5 371.26,-545.5 371.26,-545.5 371.26,-362.5 371.26,-362.5 371.26,-356.5 377.26,-350.5 383.26,-350.5"/>
<text text-anchor="middle" x="527.26" y="-542.3" font-family="Times,serif" font-size="14.00" fill="#000000">name=%pow_2</text>
<polyline fill="none" stroke="black" points="371.26,-534.5 683.26,-534.5 "/>
<text text-anchor="middle" x="527.26" y="-519.3" font-family="Times,serif" font-size="14.00" fill="#000000">op_code=call_function</text>
<polyline fill="none" stroke="black" points="371.26,-511.5 683.26,-511.5 "/>
<text text-anchor="middle" x="527.26" y="-496.3" font-family="Times,serif" font-size="14.00" fill="#000000">target=torch.ops.aten.pow.Tensor_Scalar</text>
<polyline fill="none" stroke="black" points="371.26,-488.5 683.26,-488.5 "/>
<text text-anchor="middle" x="527.26" y="-473.3" font-family="Times,serif" font-size="14.00" fill="#000000">args=(2,)</text>
<polyline fill="none" stroke="black" points="371.26,-465.5 683.26,-465.5 "/>
<text text-anchor="middle" x="527.26" y="-450.3" font-family="Times,serif" font-size="14.00" fill="#000000">num_users=1</text>
<polyline fill="none" stroke="black" points="371.26,-442.5 683.26,-442.5 "/>
<text text-anchor="middle" x="527.26" y="-427.3" font-family="Times,serif" font-size="14.00" fill="#000000">dtype=torch.float32</text>
<polyline fill="none" stroke="black" points="371.26,-419.5 683.26,-419.5 "/>
<text text-anchor="middle" x="527.26" y="-404.3" font-family="Times,serif" font-size="14.00" fill="#000000">shape=(1000,)</text>
<polyline fill="none" stroke="black" points="371.26,-396.5 683.26,-396.5 "/>
<text text-anchor="middle" x="527.26" y="-381.3" font-family="Times,serif" font-size="14.00" fill="#000000">requires_grad=False</text>
<polyline fill="none" stroke="black" points="371.26,-373.5 683.26,-373.5 "/>
<text text-anchor="middle" x="527.26" y="-358.3" font-family="Times,serif" font-size="14.00" fill="#000000">stride=(1,)</text>
</g>
<!-- cos&#45;&gt;pow_2 -->
<g id="edge7" class="edge">
<title>cos&#45;&gt;pow_2</title>
<path fill="none" stroke="black" d="M546.61,-594.4C545.4,-585.62 544.15,-576.65 542.91,-567.7"/>
<polygon fill="black" stroke="black" points="546.35,-567.03 541.51,-557.61 539.42,-568 546.35,-567.03"/>
</g>
<!-- cos&#45;&gt;output -->
<g id="edge8" class="edge">
<title>cos&#45;&gt;output</title>
<path fill="none" stroke="black" d="M670.76,-594.25C679.36,-582.93 686.8,-570.8 692.26,-558 767.22,-382.31 726.37,-310.31 666.26,-129 663.18,-119.7 658.96,-110.28 654.3,-101.31"/>
<polygon fill="black" stroke="black" points="657.38,-99.63 649.53,-92.51 651.22,-102.97 657.38,-99.63"/>
</g>
<!-- pow_2&#45;&gt;add -->
<g id="edge9" class="edge">
<title>pow_2&#45;&gt;add</title>
<path fill="none" stroke="black" d="M527.26,-350.22C527.26,-341.51 527.26,-332.69 527.26,-323.99"/>
<polygon fill="black" stroke="black" points="530.76,-323.83 527.26,-313.83 523.76,-323.83 530.76,-323.83"/>
</g>
<!-- add&#45;&gt;output -->
<g id="edge10" class="edge">
<title>add&#45;&gt;output</title>
<path fill="none" stroke="black" d="M575.69,-129.44C580.7,-120.02 585.67,-110.66 590.37,-101.83"/>
<polygon fill="black" stroke="black" points="593.55,-103.31 595.15,-92.84 587.37,-100.02 593.55,-103.31"/>
</g>
</g>
</svg>
